#!OML:ASF G:\JayActor3\Patient Classification 1\Patient 1\Session 6\male.ASF
:FULLY-SPECIFIED
:DEGREES
2096
root 4.64256 16.3602 -24.046 174.071 -55.6766 -177.338
lowerback 9.51185 0.364719 -0.118084
upperback 11.5225 -0.54622 0.305327
thorax 6.80197 -0.719972 0.355018
lowerneck 13.3304 0.980793 5.09549
upperneck -10.8466 1.76699 -3.85034
head -5.368 0.927634 -2.18604
rclavicle 4.08502e-014 -2.78299e-014
rhumerus 5.14609 41.9087 -68.7664
rradius 133.936
rwrist -4.15874
rhand -10.7521 -26.9361
rfingers 7.12502
rthumb 15.2593 -56.3533
lclavicle 4.08502e-014 -2.78299e-014
lhumerus -13.1084 -42.6731 89.6078
lradius 126.675
lwrist -5.23432
lhand -50.8111 6.47943
lfingers 7.12502
lthumb -23.3674 35.081
rfemur -15.915 9.90121 19.0437
rtibia 35.797
rfoot -17.5641 -15.5209
rtoes -2.86702
lfemur -8.54985 7.11213 -16.4459
ltibia 25.3722
lfoot -12.6568 7.13184
ltoes -0.262047
2097
root 4.64201 16.3595 -24.046 174.034 -55.6543 -177.33
lowerback 9.48656 0.362273 -0.12287
upperback 11.5289 -0.55027 0.306749
thorax 6.82322 -0.722669 0.358925
lowerneck 13.3048 0.973228 5.11325
upperneck -10.7937 1.75594 -3.87991
head -5.34726 0.924045 -2.1964
rclavicle 9.31306e-014 -2.92213e-014
rhumerus 5.15656 41.9121 -68.776
rradius 133.927
rwrist -4.15285
rhand -10.752 -26.9488
rfingers 7.12502
rthumb 15.2594 -56.3659
lclavicle 9.31306e-014 -2.92213e-014
lhumerus -13.0849 -42.6705 89.5863
lradius 126.665
lwrist -5.21007
lhand -50.8042 6.52248
lfingers 7.12502
lthumb -23.3607 35.1248
rfemur -15.8821 9.9112 19.0566
rtibia 35.7958
rfoot -17.5526 -15.4696
rtoes -2.72506
lfemur -8.5112 7.11233 -16.435
ltibia 25.3762
lfoot -12.675 7.1488
ltoes -0.226822
2098
root 4.6413 16.3589 -24.0462 174.004 -55.6367 -177.331
lowerback 9.45138 0.355578 -0.134139
upperback 11.5392 -0.560635 0.308874
thorax 6.85446 -0.729189 0.367217
lowerneck 13.2949 0.969255 5.12356
upperneck -10.7623 1.74763 -3.91748
head -5.33569 0.922591 -2.20875
rclavicle -7.85199e-015 -3.97569e-015
rhumerus 5.17832 41.9234 -68.776
rradius 133.918
rwrist -4.15127
rhand -10.7524 -26.9632
rfingers 7.12502
rthumb 15.259 -56.3804
lclavicle -7.85199e-015 -3.97569e-015
lhumerus -13.0571 -42.6556 89.564
lradius 126.656
lwrist -5.18357
lhand -50.7977 6.55796
lfingers 7.12502
lthumb -23.3546 35.1611
rfemur -15.8457 9.91833 19.0637
rtibia 35.7937
rfoot -17.5517 -15.4599
rtoes -2.71434
lfemur -8.47057 7.10944 -16.4297
ltibia 25.3774
lfoot -12.6903 7.16291
ltoes -0.196058
2099
root 4.64044 16.3584 -24.0464 173.972 -55.6214 -177.329
lowerback 9.41255 0.345108 -0.14502
upperback 11.5491 -0.575987 0.313446
thorax 6.8874 -0.738235 0.377982
lowerneck 13.3032 0.968245 5.12018
upperneck -10.7491 1.74147 -3.95381
head -5.33288 0.922628 -2.21911
rclavicle -4.84041e-014 1.96797e-014
rhumerus 5.19885 41.9422 -68.7724
rradius 133.913
rwrist -4.15527
rhand -10.7502 -26.9815
rfingers 7.12502
rthumb 15.2612 -56.3985
lclavicle -4.84041e-014 1.96797e-014
lhumerus -13.0354 -42.6302 89.55
lradius 126.649
lwrist -5.15794
lhand -50.7908 6.57166
lfingers 7.12502
lthumb -23.3479 35.1757
rfemur -15.8084 9.92377 19.0715
rtibia 35.7915
rfoot -17.5589 -15.4444
rtoes -2.68516
lfemur -8.42986 7.10719 -16.4229
ltibia 25.3766
lfoot -12.7033 7.17283
ltoes -0.17783
2100
root 4.63946 16.358 -24.0465 173.941 -55.6094 -177.327
lowerback 9.37417 0.331613 -0.154898
upperback 11.5564 -0.594906 0.31757
thorax 6.91721 -0.748799 0.387866
lowerneck 13.3142 0.967999 5.11053
upperneck -10.7368 1.73557 -3.9879
head -5.33089 0.922897 -2.22781
rclavicle 3.4191e-014 -1.51076e-014
rhumerus 5.21319 41.9636 -68.7718
rradius 133.908
rwrist -4.16558
rhand -10.7465 -27.0027
rfingers 7.12502
rthumb 15.2646 -56.4195
lclavicle 3.4191e-014 -1.51076e-014
lhumerus -13.0244 -42.6007 89.5444
lradius 126.642
lwrist -5.13595
lhand -50.7875 6.5607
lfingers 7.12502
lthumb -23.3448 35.1651
rfemur -15.7719 9.92492 19.0778
rtibia 35.789
rfoot -17.5654 -15.4284
rtoes -2.65619
lfemur -8.39159 7.10827 -16.4169
ltibia 25.3762
lfoot -12.7122 7.17673
ltoes -0.17901
2101
root 4.63848 16.3577 -24.0466 173.914 -55.6006 -177.325
lowerback 9.33859 0.315249 -0.161888
upperback 11.5603 -0.616971 0.319553
thorax 6.94173 -0.760417 0.394059
lowerneck 13.3251 0.968472 5.09429
upperneck -10.723 1.73046 -4.01407
head -5.32847 0.923258 -2.23297
rclavicle 3.25013e-014 1.03368e-014
rhumerus 5.22186 41.9846 -68.7763
rradius 133.903
rwrist -4.18195
rhand -10.7419 -27.0236
rfingers 7.12502
rthumb 15.2691 -56.44
lclavicle 3.25013e-014 1.03368e-014
lhumerus -13.0229 -42.5687 89.5433
lradius 126.637
lwrist -5.12512
lhand -50.7841 6.53296
lfingers 7.12502
lthumb -23.3415 35.1378
rfemur -15.7391 9.92085 19.0824
rtibia 35.7858
rfoot -17.5701 -15.4125
rtoes -2.62519
lfemur -8.35979 7.11342 -16.4112
ltibia 25.379
lfoot -12.7192 7.17306
ltoes -0.192703
2102
root 4.63746 16.3574 -24.0467 173.882 -55.5925 -177.314
lowerback 9.31159 0.297703 -0.160302
upperback 11.5579 -0.639475 0.320685
thorax 6.95443 -0.771244 0.394783
lowerneck 13.322 0.967876 5.0805
upperneck -10.6915 1.72449 -4.03688
head -5.3183 0.922895 -2.23702
rclavicle 2.47487e-014 -4.01545e-014
rhumerus 5.22005 42.0033 -68.788
rradius 133.897
rwrist -4.20289
rhand -10.7385 -27.0329
rfingers 7.12502
rthumb 15.2724 -56.4491
lclavicle 2.47487e-014 -4.01545e-014
lhumerus -13.0402 -42.5401 89.5545
lradius 126.635
lwrist -5.12864
lhand -50.7779 6.50158
lfingers 7.12502
lthumb -23.3356 35.1071
rfemur -15.7087 9.91606 19.0914
rtibia 35.7822
rfoot -17.5795 -15.3925
rtoes -2.57994
lfemur -8.33338 7.1218 -16.4004
ltibia 25.3852
lfoot -12.7228 7.16607
ltoes -0.216999
2103
root 4.63645 16.3571 -24.0467 173.849 -55.5827 -177.298
lowerback 9.28947 0.281156 -0.153538
upperback 11.5524 -0.660043 0.320999
thorax 6.96085 -0.780517 0.391804
lowerneck 13.3064 0.966855 5.07318
upperneck -10.6488 1.71867 -4.06061
head -5.30244 0.922385 -2.24212
rclavicle 2.94201e-014 -2.90226e-014
rhumerus 5.21625 42.0175 -68.8007
rradius 133.891
rwrist -4.22754
rhand -10.734 -27.037
rfingers 7.12502
rthumb 15.2767 -56.4529
lclavicle 2.94201e-014 -2.90226e-014
lhumerus -13.067 -42.5163 89.5719
lradius 126.636
lwrist -5.1467
lhand -50.7732 6.48356
lfingers 7.12502
lthumb -23.331 35.0897
rfemur -15.682 9.91159 19.1033
rtibia 35.7782
rfoot -17.5853 -15.3754
rtoes -2.54732
lfemur -8.31296 7.13331 -16.3863
ltibia 25.3955
lfoot -12.7263 7.15622
ltoes -0.237694
2104
root 4.63537 16.3567 -24.0466 173.818 -55.5713 -177.284
lowerback 9.27062 0.267194 -0.145993
upperback 11.5479 -0.677297 0.319803
thorax 6.96651 -0.788098 0.386707
lowerneck 13.2772 0.966368 5.0566
upperneck -10.5974 1.7133 -4.06938
head -5.28183 0.921327 -2.24077
rclavicle 2.38542e-015 1.49089e-014
rhumerus 5.21606 42.0254 -68.8087
rradius 133.886
rwrist -4.25249
rhand -10.7351 -27.029
rfingers 7.12502
rthumb 15.2756 -56.4449
lclavicle 2.38542e-015 1.49089e-014
lhumerus -13.0962 -42.4986 89.5916
lradius 126.641
lwrist -5.17415
lhand -50.7653 6.47739
lfingers 7.12502
lthumb -23.3234 35.0845
rfemur -15.6555 9.90549 19.1133
rtibia 35.7745
rfoot -17.5861 -15.36
rtoes -2.52859
lfemur -8.29289 7.14162 -16.3744
ltibia 25.407
lfoot -12.7307 7.15018
ltoes -0.251344
2105
root 4.63439 16.3562 -24.0465 173.784 -55.5556 -177.265
lowerback 9.2542 0.256619 -0.135915
upperback 11.5434 -0.690126 0.320874
thorax 6.97077 -0.793418 0.382471
lowerneck 13.2478 0.966923 5.02891
upperneck -10.5493 1.70878 -4.066
head -5.26243 0.920206 -2.23388
rclavicle -1.35174e-014 9.34288e-015
rhumerus 5.22023 42.0304 -68.8087
rradius 133.882
rwrist -4.27704
rhand -10.7403 -27.0159
rfingers 7.12502
rthumb 15.2707 -56.4322
lclavicle -1.35174e-014 9.34288e-015
lhumerus -13.1245 -42.4841 89.6146
lradius 126.651
lwrist -5.20671
lhand -50.7595 6.49776
lfingers 7.12502
lthumb -23.3179 35.1056
rfemur -15.633 9.9021 19.1275
rtibia 35.7713
rfoot -17.584 -15.3466
rtoes -2.52549
lfemur -8.27471 7.14865 -16.3593
ltibia 25.4182
lfoot -12.7362 7.15017
ltoes -0.260184
2106
root 4.6334 16.3558 -24.0464 173.76 -55.5381 -177.258
lowerback 9.24179 0.250091 -0.133042
upperback 11.5404 -0.69815 0.321239
thorax 6.97441 -0.796995 0.381385
lowerneck 13.2169 0.968209 4.99373
upperneck -10.5035 1.70493 -4.0535
head -5.24361 0.919011 -2.22298
rclavicle -7.70291e-014 5.24792e-014
rhumerus 5.22953 42.0309 -68.8009
rradius 133.879
rwrist -4.29883
rhand -10.7474 -26.9926
rfingers 7.12502
rthumb 15.2638 -56.4094
lclavicle -7.70291e-014 5.24792e-014
lhumerus -13.1497 -42.4766 89.6381
lradius 126.664
lwrist -5.23535
lhand -50.7564 6.51862
lfingers 7.12502
lthumb -23.3149 35.1268
rfemur -15.6096 9.89785 19.1342
rtibia 35.7688
rfoot -17.5795 -15.3333
rtoes -2.52959
lfemur -8.25287 7.15164 -16.3524
ltibia 25.4261
lfoot -12.7433 7.1571
ltoes -0.262908
2107
root 4.6325 16.3554 -24.0462 173.735 -55.5153 -177.25
lowerback 9.23015 0.24703 -0.130118
upperback 11.5382 -0.701817 0.323643
thorax 6.97847 -0.798561 0.382276
lowerneck 13.1914 0.971628 4.94987
upperneck -10.4636 1.70359 -4.03263
head -5.22756 0.918779 -2.20838
rclavicle -2.28602e-015 1.23246e-014
rhumerus 5.24484 42.0297 -68.7852
rradius 133.877
rwrist -4.31945
rhand -10.749 -26.9675
rfingers 7.12502
rthumb 15.2623 -56.3844
lclavicle -2.28602e-015 1.23246e-014
lhumerus -13.1671 -42.4698 89.6591
lradius 126.678
lwrist -5.26131
lhand -50.7597 6.54957
lfingers 7.12502
lthumb -23.3181 35.1574
rfemur -15.5905 9.90005 19.1429
rtibia 35.7673
rfoot -17.5772 -15.319
rtoes -2.53689
lfemur -8.23008 7.15168 -16.3441
ltibia 25.4304
lfoot -12.7542 7.17413
ltoes -0.258542
2108
root 4.63156 16.3552 -24.0461 173.711 -55.4889 -177.241
lowerback 9.23305 0.245632 -0.124133
upperback 11.5272 -0.702106 0.324148
thorax 6.96459 -0.797728 0.379719
lowerneck 13.1708 0.976059 4.90969
upperneck -10.4144 1.70511 -4.00929
head -5.20932 0.919756 -2.19377
rclavicle 8.59744e-014 -3.1408e-014
rhumerus 5.24349 42.0333 -68.782
rradius 133.879
rwrist -4.33231
rhand -10.7478 -26.9455
rfingers 7.12502
rthumb 15.2635 -56.3624
lclavicle 8.59744e-014 -3.1408e-014
lhumerus -13.2003 -42.4694 89.6885
lradius 126.692
lwrist -5.2743
lhand -50.7676 6.56245
lfingers 7.12502
lthumb -23.3257 35.1693
rfemur -15.5729 9.90585 19.1518
rtibia 35.7666
rfoot -17.5769 -15.3034
rtoes -2.54373
lfemur -8.20358 7.15264 -16.3364
ltibia 25.4305
lfoot -12.7676 7.19759
ltoes -0.258169
2109
root 4.63067 16.3548 -24.0459 173.698 -55.4618 -177.245
lowerback 9.23209 0.244922 -0.125869
upperback 11.5202 -0.70224 0.323175
thorax 6.95731 -0.797548 0.379786
lowerneck 13.1517 0.983302 4.87906
upperneck -10.3698 1.71105 -3.99471
head -5.19235 0.923103 -2.1839
rclavicle -6.63941e-014 2.66371e-014
rhumerus 5.2578 42.0378 -68.7692
rradius 133.88
rwrist -4.34121
rhand -10.7408 -26.9336
rfingers 7.12502
rthumb 15.2702 -56.3499
lclavicle -6.63941e-014 2.66371e-014
lhumerus -13.2178 -42.4654 89.7061
lradius 126.703
lwrist -5.28147
lhand -50.781 6.57137
lfingers 7.12502
lthumb -23.3385 35.1766
rfemur -15.5574 9.91316 19.1537
rtibia 35.7666
rfoot -17.5772 -15.2882
rtoes -2.55546
lfemur -8.17614 7.15409 -16.336
ltibia 25.4292
lfoot -12.7838 7.22351
ltoes -0.252416
